# xmcd
#
# Track frame offsets: 
#        150
#        12665
#        23702
#        34227
#        43860
#        57937
#        70547
#        81162
#        93685
#        107100
#        117390
#        128917
#        144900
#        157835
#        168280
#        182172
#        193650
#        204840
#
# Disc length: 2848 seconds
#
# Revision: 2
# Processed by: cddbd v1.5.1PL2 Copyright (c) Steve Scherf et al.
# Submitted via: ExactAudioCopy v0.90b4
#
DISCID=f30b1e12
DTITLE=Johnny Bond, The Willis Brothers, and The Red River Valley Boys /
DTITLE=The Singin Cowboy Rides Again
DYEAR=1993
DGENRE=
TTITLE0=Riders In The Sky
TTITLE1=Back In The Saddle Again
TTITLE2=Cool Water
TTITLE3=Sky Ball Paint
TTITLE4=Along The Navajo Trail
TTITLE5=South Of The Border
TTITLE6=San Antonio Rose
TTITLE7=Streets Of Laredo
TTITLE8=High Noon
TTITLE9=Sioux City Sue
TTITLE10=Rollin' Plains
TTITLE11=Red River Valley
TTITLE12=Trail To Mexico
TTITLE13=One More Ride
TTITLE14=Take Me Back To Tulsa
TTITLE15=Empty Saddles
TTITLE16=The Last Roundup
TTITLE17=Cimarron (Roll On)
EXTD=CMH Records  CD-8001
EXTT0=The Willis Brothers - from the Columbia Picture "Riders in the S
EXTT0=ky", starring Gene Autry
EXTT1=Johhny Bond and the Willis Brothers - from the Republic pictures "
EXTT1=Rovin' Tumbleweeds" and "Back In The Saddle", starring Gene Autr
EXTT1=y
EXTT2=Johhny Bond with The Willis Brothers - from Columbia and Republi
EXTT2=c pictures, sung by the Sons of the Pioneers
EXTT3=The Willis Brothers with Johnny Bond - as sung by Roy rogers and
EXTT3=the Sons of the Pioneers
EXTT4=Johnny Bond
EXTT5=Johnny Bond
EXTT6=The Willis Brothers
EXTT7=Johnny Bond
EXTT8=Johnny Bond and the Willis Brothers
EXTT9=The Willis Brothers with Johnny Bond
EXTT10=Johnny Bond
EXTT11=The Willis Brothers with Johnny Bond
EXTT12=Johnny Bond
EXTT13=Johnny Bond with the Willis brothers
EXTT14=The Willis Brothers
EXTT15=Johnny Bond
EXTT16=Johnny Bond with the Willis brothers
EXTT17=The Willis Brothers
PLAYORDER=
